<svg xmlns="http://www.w3.org/2000/svg" viewBox="0 0 24 24" fill="none" stroke="currentColor" stroke-width="2" stroke-linecap="round" stroke-linejoin="round">
  <path d="M12 3c1 0 2 .6 2.7 1.7.3.5.3 1 .3 1.5 0 .6-.3 1.2-.7 1.8-.4.4-.7.9-1 1.4l-.3.6c-.4.8-.2 1.3.2 1.7.6.5 1.4.5 2 .3.9-.3 1.5-1 2.1-1.7.2-.2.4-.5.5-.7"/>
  <path d="M12 3c-1 0-2 .6-2.7 1.7-.3.5-.3 1-.3 1.5 0 .6.3 1.2.7 1.8.4.4.7.9 1 1.4l.3.6c.4.8.2 1.3-.2 1.7-.6.5-1.4.5-2 .3-.9-.3-1.5-1-2.1-1.7-.2-.2-.4-.5-.5-.7"/>
  <path d="M12 12c-.5 1.5 0 3 1 4s2.5 2 3 3.5c.5 1.5 0 3-1.5 4s-3 1-4.5.5"/>
  <path d="M12 12c.5 1.5 0 3-1 4s-2.5 2-3 3.5c-.5 1.5 0 3 1.5 4s3 1 4.5.5"/>
</svg>